<mxfile host="app.diagrams.net" modified="2023-11-28T10:35:46.285Z" agent="Mozilla/5.0 (Windows NT 10.0; Win64; x64) AppleWebKit/537.36 (KHTML, like Gecko) Chrome/119.0.0.0 Safari/537.36" etag="wIgQf4F43CQLVoLvsv0F" version="22.1.4" type="device">
  <diagram id="Iud_60Tec8WWjECDLA0L" name="Page-1">
    <mxGraphModel dx="1012" dy="609" grid="1" gridSize="10" guides="1" tooltips="1" connect="1" arrows="1" fold="1" page="1" pageScale="1" pageWidth="800" pageHeight="650" math="0" shadow="0">
      <root>
        <mxCell id="0" />
        <mxCell id="1" parent="0" />
        <mxCell id="VtQFOAiCi7PLHSW1BKxh-59" value="" style="edgeStyle=none;rounded=0;orthogonalLoop=1;jettySize=auto;html=1;fontSize=16;strokeColor=#000000;" parent="1" source="VtQFOAiCi7PLHSW1BKxh-1" target="VtQFOAiCi7PLHSW1BKxh-47" edge="1">
          <mxGeometry relative="1" as="geometry" />
        </mxCell>
        <mxCell id="VtQFOAiCi7PLHSW1BKxh-1" value="User&lt;br&gt;" style="sketch=0;outlineConnect=0;fontColor=#232F3E;gradientColor=none;fillColor=#232F3D;strokeColor=none;dashed=0;verticalLabelPosition=bottom;verticalAlign=top;align=center;html=1;fontSize=12;fontStyle=0;aspect=fixed;pointerEvents=1;shape=mxgraph.aws4.user;" parent="1" vertex="1">
          <mxGeometry y="234.13" width="81.75" height="81.75" as="geometry" />
        </mxCell>
        <mxCell id="VtQFOAiCi7PLHSW1BKxh-34" value="" style="edgeStyle=none;rounded=0;orthogonalLoop=1;jettySize=auto;html=1;fontSize=16;entryX=0;entryY=0.5;entryDx=0;entryDy=0;exitX=1;exitY=0.5;exitDx=0;exitDy=0;" parent="1" source="VtQFOAiCi7PLHSW1BKxh-47" target="VtQFOAiCi7PLHSW1BKxh-49" edge="1">
          <mxGeometry relative="1" as="geometry">
            <mxPoint x="280" y="279" as="sourcePoint" />
            <mxPoint x="360" y="160" as="targetPoint" />
            <Array as="points">
              <mxPoint x="320" y="276" />
              <mxPoint x="320" y="160" />
            </Array>
          </mxGeometry>
        </mxCell>
        <mxCell id="VtQFOAiCi7PLHSW1BKxh-35" style="edgeStyle=none;rounded=0;orthogonalLoop=1;jettySize=auto;html=1;exitX=1;exitY=0.5;exitDx=0;exitDy=0;entryX=0;entryY=0.5;entryDx=0;entryDy=0;fontSize=16;" parent="1" source="VtQFOAiCi7PLHSW1BKxh-47" target="VtQFOAiCi7PLHSW1BKxh-51" edge="1">
          <mxGeometry relative="1" as="geometry">
            <mxPoint x="280" y="279" as="sourcePoint" />
            <mxPoint x="360" y="279.962" as="targetPoint" />
          </mxGeometry>
        </mxCell>
        <mxCell id="VtQFOAiCi7PLHSW1BKxh-36" style="edgeStyle=none;rounded=0;orthogonalLoop=1;jettySize=auto;html=1;exitX=1;exitY=0.5;exitDx=0;exitDy=0;entryX=0;entryY=0.5;entryDx=0;entryDy=0;fontSize=16;" parent="1" source="VtQFOAiCi7PLHSW1BKxh-47" target="VtQFOAiCi7PLHSW1BKxh-53" edge="1">
          <mxGeometry relative="1" as="geometry">
            <mxPoint x="280" y="279" as="sourcePoint" />
            <mxPoint x="360" y="398.26" as="targetPoint" />
            <Array as="points">
              <mxPoint x="320" y="276" />
              <mxPoint x="320" y="400" />
            </Array>
          </mxGeometry>
        </mxCell>
        <mxCell id="VtQFOAiCi7PLHSW1BKxh-6" style="edgeStyle=none;rounded=0;orthogonalLoop=1;jettySize=auto;html=1;exitX=1;exitY=1;exitDx=0;exitDy=0;fontSize=18;fillColor=#d5e8d4;strokeColor=default;" parent="1" edge="1">
          <mxGeometry relative="1" as="geometry">
            <mxPoint x="280" y="312.25" as="sourcePoint" />
            <mxPoint x="280" y="312.25" as="targetPoint" />
          </mxGeometry>
        </mxCell>
        <mxCell id="VtQFOAiCi7PLHSW1BKxh-10" style="edgeStyle=none;rounded=0;orthogonalLoop=1;jettySize=auto;html=1;exitX=1;exitY=1;exitDx=0;exitDy=0;fontSize=18;fillColor=#dae8fc;strokeColor=#6c8ebf;" parent="1" edge="1">
          <mxGeometry relative="1" as="geometry">
            <mxPoint x="550" y="190" as="sourcePoint" />
            <mxPoint x="550" y="190" as="targetPoint" />
          </mxGeometry>
        </mxCell>
        <mxCell id="VtQFOAiCi7PLHSW1BKxh-39" style="edgeStyle=none;rounded=0;orthogonalLoop=1;jettySize=auto;html=1;exitX=1;exitY=0.5;exitDx=0;exitDy=0;entryX=-0.021;entryY=0.333;entryDx=0;entryDy=0;entryPerimeter=0;fontSize=16;" parent="1" source="VtQFOAiCi7PLHSW1BKxh-49" target="VtQFOAiCi7PLHSW1BKxh-21" edge="1">
          <mxGeometry relative="1" as="geometry">
            <mxPoint x="530" y="160" as="sourcePoint" />
          </mxGeometry>
        </mxCell>
        <mxCell id="VtQFOAiCi7PLHSW1BKxh-13" style="edgeStyle=none;rounded=0;orthogonalLoop=1;jettySize=auto;html=1;exitX=1;exitY=1;exitDx=0;exitDy=0;fontSize=18;fillColor=#dae8fc;strokeColor=#6c8ebf;" parent="1" edge="1">
          <mxGeometry relative="1" as="geometry">
            <mxPoint x="530" y="200" as="sourcePoint" />
            <mxPoint x="530" y="200" as="targetPoint" />
          </mxGeometry>
        </mxCell>
        <mxCell id="VtQFOAiCi7PLHSW1BKxh-14" style="edgeStyle=none;rounded=0;orthogonalLoop=1;jettySize=auto;html=1;exitX=1;exitY=1;exitDx=0;exitDy=0;fontSize=18;fillColor=#dae8fc;strokeColor=#6c8ebf;" parent="1" edge="1">
          <mxGeometry relative="1" as="geometry">
            <mxPoint x="550" y="429.25" as="sourcePoint" />
            <mxPoint x="550" y="429.25" as="targetPoint" />
          </mxGeometry>
        </mxCell>
        <mxCell id="VtQFOAiCi7PLHSW1BKxh-40" style="edgeStyle=none;rounded=0;orthogonalLoop=1;jettySize=auto;html=1;entryX=0;entryY=0.5;entryDx=0;entryDy=0;entryPerimeter=0;fontSize=16;exitX=1;exitY=0.5;exitDx=0;exitDy=0;" parent="1" source="VtQFOAiCi7PLHSW1BKxh-53" target="VtQFOAiCi7PLHSW1BKxh-22" edge="1">
          <mxGeometry relative="1" as="geometry">
            <mxPoint x="530" y="400" as="sourcePoint" />
          </mxGeometry>
        </mxCell>
        <mxCell id="VtQFOAiCi7PLHSW1BKxh-17" style="edgeStyle=none;rounded=0;orthogonalLoop=1;jettySize=auto;html=1;exitX=1;exitY=1;exitDx=0;exitDy=0;fontSize=18;fillColor=#dae8fc;strokeColor=#6c8ebf;" parent="1" edge="1">
          <mxGeometry relative="1" as="geometry">
            <mxPoint x="530" y="440.75" as="sourcePoint" />
            <mxPoint x="530" y="440.75" as="targetPoint" />
          </mxGeometry>
        </mxCell>
        <mxCell id="VtQFOAiCi7PLHSW1BKxh-18" value="" style="strokeWidth=2;html=1;shape=mxgraph.flowchart.database;whiteSpace=wrap;fontSize=16;fillColor=#e1d5e7;strokeColor=#9673a6;" parent="1" vertex="1">
          <mxGeometry x="610" y="120" width="150" height="80" as="geometry" />
        </mxCell>
        <mxCell id="VtQFOAiCi7PLHSW1BKxh-21" value="&lt;b&gt;User Repository&lt;/b&gt;" style="text;html=1;align=center;verticalAlign=middle;resizable=0;points=[];autosize=1;strokeColor=none;fillColor=none;fontSize=16;" parent="1" vertex="1">
          <mxGeometry x="610" y="150" width="150" height="30" as="geometry" />
        </mxCell>
        <mxCell id="VtQFOAiCi7PLHSW1BKxh-22" value="" style="strokeWidth=2;html=1;shape=mxgraph.flowchart.database;whiteSpace=wrap;fontSize=16;fillColor=#e1d5e7;strokeColor=#9673a6;" parent="1" vertex="1">
          <mxGeometry x="610" y="360" width="150" height="80" as="geometry" />
        </mxCell>
        <mxCell id="VtQFOAiCi7PLHSW1BKxh-23" value="&lt;b&gt;Preference&lt;br&gt;Repository&lt;br&gt;&lt;/b&gt;" style="text;html=1;align=center;verticalAlign=middle;resizable=0;points=[];autosize=1;strokeColor=none;fillColor=none;fontSize=16;" parent="1" vertex="1">
          <mxGeometry x="630" y="383" width="110" height="50" as="geometry" />
        </mxCell>
        <mxCell id="VtQFOAiCi7PLHSW1BKxh-24" style="edgeStyle=none;rounded=0;orthogonalLoop=1;jettySize=auto;html=1;exitX=1;exitY=1;exitDx=0;exitDy=0;fontSize=18;fillColor=#dae8fc;strokeColor=#6c8ebf;" parent="1" edge="1">
          <mxGeometry relative="1" as="geometry">
            <mxPoint x="550" y="305.75" as="sourcePoint" />
            <mxPoint x="550" y="305.75" as="targetPoint" />
          </mxGeometry>
        </mxCell>
        <mxCell id="VtQFOAiCi7PLHSW1BKxh-37" style="edgeStyle=none;rounded=0;orthogonalLoop=1;jettySize=auto;html=1;exitX=0.5;exitY=0;exitDx=0;exitDy=0;entryX=0.5;entryY=1;entryDx=0;entryDy=0;fontSize=16;fillColor=#dae8fc;strokeColor=#6c8ebf;" parent="1" edge="1">
          <mxGeometry relative="1" as="geometry">
            <mxPoint x="445" y="238.25" as="sourcePoint" />
            <mxPoint x="445" y="200" as="targetPoint" />
          </mxGeometry>
        </mxCell>
        <mxCell id="VtQFOAiCi7PLHSW1BKxh-38" style="edgeStyle=none;rounded=0;orthogonalLoop=1;jettySize=auto;html=1;exitX=0.5;exitY=1;exitDx=0;exitDy=0;fontSize=16;fillColor=#dae8fc;strokeColor=#000000;" parent="1" edge="1">
          <mxGeometry relative="1" as="geometry">
            <mxPoint x="445" y="360" as="targetPoint" />
            <mxPoint x="445" y="317.25" as="sourcePoint" />
          </mxGeometry>
        </mxCell>
        <mxCell id="VtQFOAiCi7PLHSW1BKxh-41" style="edgeStyle=none;rounded=0;orthogonalLoop=1;jettySize=auto;html=1;exitX=1;exitY=0.5;exitDx=0;exitDy=0;fontSize=16;entryX=0;entryY=0.5;entryDx=0;entryDy=0;" parent="1" source="VtQFOAiCi7PLHSW1BKxh-51" target="VtQFOAiCi7PLHSW1BKxh-54" edge="1">
          <mxGeometry relative="1" as="geometry">
            <mxPoint x="600" y="278" as="targetPoint" />
            <mxPoint x="530" y="277.75" as="sourcePoint" />
          </mxGeometry>
        </mxCell>
        <mxCell id="VtQFOAiCi7PLHSW1BKxh-27" style="edgeStyle=none;rounded=0;orthogonalLoop=1;jettySize=auto;html=1;exitX=1;exitY=1;exitDx=0;exitDy=0;fontSize=18;fillColor=#dae8fc;strokeColor=#6c8ebf;" parent="1" edge="1">
          <mxGeometry relative="1" as="geometry">
            <mxPoint x="530" y="317.25" as="sourcePoint" />
            <mxPoint x="530" y="317.25" as="targetPoint" />
          </mxGeometry>
        </mxCell>
        <mxCell id="VtQFOAiCi7PLHSW1BKxh-30" style="edgeStyle=none;rounded=0;orthogonalLoop=1;jettySize=auto;html=1;exitX=1;exitY=1;exitDx=0;exitDy=0;fontSize=18;" parent="1" edge="1">
          <mxGeometry relative="1" as="geometry">
            <mxPoint x="210" y="99" as="sourcePoint" />
            <mxPoint x="210" y="99" as="targetPoint" />
          </mxGeometry>
        </mxCell>
        <mxCell id="VtQFOAiCi7PLHSW1BKxh-47" value="&lt;b style=&quot;font-size: 12px;&quot;&gt;&lt;font style=&quot;font-size: 16px;&quot;&gt;Single-Page Web&lt;br&gt;Application&lt;/font&gt;&lt;/b&gt;" style="rounded=1;whiteSpace=wrap;html=1;fontSize=16;strokeColor=#82b366;fillColor=#d5e8d4;" parent="1" vertex="1">
          <mxGeometry x="120" y="235.5" width="160" height="81.75" as="geometry" />
        </mxCell>
        <mxCell id="VtQFOAiCi7PLHSW1BKxh-48" style="edgeStyle=none;rounded=0;orthogonalLoop=1;jettySize=auto;html=1;exitX=1;exitY=1;exitDx=0;exitDy=0;fontSize=18;fillColor=#dae8fc;strokeColor=#6c8ebf;" parent="1" edge="1">
          <mxGeometry relative="1" as="geometry">
            <mxPoint x="524.5" y="195" as="sourcePoint" />
            <mxPoint x="524.5" y="195" as="targetPoint" />
          </mxGeometry>
        </mxCell>
        <mxCell id="VtQFOAiCi7PLHSW1BKxh-49" value="&lt;b&gt;User Service&lt;/b&gt;" style="rounded=1;whiteSpace=wrap;html=1;fontSize=16;strokeColor=#6c8ebf;fillColor=#dae8fc;" parent="1" vertex="1">
          <mxGeometry x="364.5" y="118.25" width="160" height="81.75" as="geometry" />
        </mxCell>
        <mxCell id="VtQFOAiCi7PLHSW1BKxh-50" style="edgeStyle=none;rounded=0;orthogonalLoop=1;jettySize=auto;html=1;exitX=1;exitY=1;exitDx=0;exitDy=0;fontSize=18;fillColor=#d5e8d4;strokeColor=default;" parent="1" edge="1">
          <mxGeometry relative="1" as="geometry">
            <mxPoint x="300" y="332.25" as="sourcePoint" />
            <mxPoint x="300" y="332.25" as="targetPoint" />
          </mxGeometry>
        </mxCell>
        <mxCell id="VtQFOAiCi7PLHSW1BKxh-55" value="" style="edgeStyle=none;rounded=0;orthogonalLoop=1;jettySize=auto;html=1;fontSize=16;strokeColor=#000000;" parent="1" source="VtQFOAiCi7PLHSW1BKxh-51" target="VtQFOAiCi7PLHSW1BKxh-49" edge="1">
          <mxGeometry relative="1" as="geometry" />
        </mxCell>
        <mxCell id="VtQFOAiCi7PLHSW1BKxh-51" value="&lt;b&gt;Filter Service&lt;/b&gt;" style="rounded=1;whiteSpace=wrap;html=1;fontSize=16;strokeColor=#6c8ebf;fillColor=#dae8fc;" parent="1" vertex="1">
          <mxGeometry x="365" y="235.5" width="160" height="81.75" as="geometry" />
        </mxCell>
        <mxCell id="VtQFOAiCi7PLHSW1BKxh-52" style="edgeStyle=none;rounded=0;orthogonalLoop=1;jettySize=auto;html=1;exitX=1;exitY=1;exitDx=0;exitDy=0;fontSize=18;fillColor=#dae8fc;strokeColor=#6c8ebf;" parent="1" edge="1">
          <mxGeometry relative="1" as="geometry">
            <mxPoint x="525" y="435" as="sourcePoint" />
            <mxPoint x="525" y="435" as="targetPoint" />
          </mxGeometry>
        </mxCell>
        <mxCell id="VtQFOAiCi7PLHSW1BKxh-53" value="&lt;b&gt;Preference&lt;br&gt;Service&lt;/b&gt;" style="rounded=1;whiteSpace=wrap;html=1;fontSize=16;strokeColor=#6c8ebf;fillColor=#dae8fc;" parent="1" vertex="1">
          <mxGeometry x="365" y="358.25" width="160" height="81.75" as="geometry" />
        </mxCell>
        <mxCell id="VtQFOAiCi7PLHSW1BKxh-57" style="edgeStyle=none;rounded=0;orthogonalLoop=1;jettySize=auto;html=1;exitX=1;exitY=0.5;exitDx=0;exitDy=0;fontSize=16;strokeColor=#000000;" parent="1" source="VtQFOAiCi7PLHSW1BKxh-54" edge="1">
          <mxGeometry relative="1" as="geometry">
            <mxPoint x="830" y="276" as="targetPoint" />
          </mxGeometry>
        </mxCell>
        <mxCell id="VtQFOAiCi7PLHSW1BKxh-54" value="&lt;b style=&quot;&quot;&gt;Resource Query&lt;br&gt;Service&lt;/b&gt;" style="rounded=1;whiteSpace=wrap;html=1;fontSize=16;strokeColor=#6c8ebf;fillColor=#dae8fc;" parent="1" vertex="1">
          <mxGeometry x="605" y="235.5" width="160" height="81.75" as="geometry" />
        </mxCell>
        <mxCell id="VtQFOAiCi7PLHSW1BKxh-58" value="SPARQL&lt;br&gt;Endpoint" style="rounded=0;whiteSpace=wrap;html=1;fontSize=16;strokeColor=#666666;fillColor=#f5f5f5;fontColor=#333333;" parent="1" vertex="1">
          <mxGeometry x="830" y="232.75" width="160" height="84.5" as="geometry" />
        </mxCell>
      </root>
    </mxGraphModel>
  </diagram>
</mxfile>
